<?xml version="1.0" standalone="no"?>
<!DOCTYPE svg PUBLIC "-//W3C//DTD SVG 20010904//EN"
 "http://www.w3.org/TR/2001/REC-SVG-20010904/DTD/svg10.dtd">
<svg version="1.0" xmlns="http://www.w3.org/2000/svg"
 width="498.000000pt" height="501.000000pt" viewBox="0 0 498.000000 501.000000"
 preserveAspectRatio="xMidYMid meet">

<g transform="translate(0.000000,501.000000) scale(0.100000,-0.100000)"
fill="#000000" stroke="none">
<path d="M2360 4983 c-611 -42 -1179 -301 -1610 -733 -375 -375 -601 -830
-699 -1410 -105 -618 73 -1299 482 -1842 384 -511 987 -864 1625 -952 130 -18
412 -21 547 -6 445 51 914 251 1285 548 207 166 432 422 581 662 114 184 243
489 299 711 90 351 96 744 19 1109 -27 122 -105 356 -164 488 -269 606 -785
1071 -1435 1295 -293 101 -645 150 -930 130z m475 -228 c560 -86 1068 -379
1419 -818 332 -416 523 -1009 486 -1508 -24 -323 -89 -563 -229 -854 -111
-231 -202 -367 -373 -561 -148 -169 -273 -278 -470 -411 -399 -269 -885 -400
-1357 -364 -398 30 -717 139 -1066 366 -240 156 -474 394 -650 660 -253 383
-378 832 -362 1299 24 686 336 1307 862 1716 39 30 72 57 75 60 15 15 207 135
287 178 265 143 561 228 893 256 90 8 387 -4 485 -19z"/>
<path d="M2353 4230 c-329 -27 -650 -154 -933 -367 -61 -47 -201 -184 -263
-257 -169 -203 -330 -537 -382 -790 -55 -272 -38 -538 50 -813 45 -139 158
-363 240 -478 180 -252 440 -466 712 -589 436 -195 921 -198 1346 -7 88 40
268 148 363 220 112 83 276 247 361 361 75 101 173 271 222 386 43 101 96 283
116 399 24 133 24 376 2 506 -53 310 -201 616 -412 853 -199 224 -469 399
-765 496 -138 46 -238 66 -385 80 -120 11 -135 11 -272 0z m252 -40 c324 -27
592 -126 870 -323 305 -216 534 -542 634 -900 81 -289 70 -630 -30 -932 -43
-128 -158 -354 -236 -464 -174 -242 -431 -458 -698 -586 -218 -104 -381 -144
-625 -152 -321 -10 -585 54 -861 209 -438 247 -742 669 -850 1180 -29 138 -32
400 -6 532 44 219 153 491 267 666 285 437 777 730 1290 770 52 4 102 8 110 8
8 1 69 -3 135 -8z"/>
<path d="M2253 3338 c-13 -6 -25 -18 -27 -27 -3 -9 -6 -217 -8 -463 -3 -418
-2 -448 15 -465 17 -17 64 -18 794 -21 717 -3 777 -2 794 14 18 16 19 40 19
471 0 297 -3 452 -10 448 -5 -3 -7 0 -4 8 3 9 -4 22 -18 31 -20 14 -100 16
-778 15 -517 0 -762 -4 -777 -11z m1553 -19 c3 -6 1 -16 -5 -22 -9 -9 -11 -8
-6 6 4 9 4 17 0 17 -4 0 -14 -8 -21 -17 -13 -17 -14 -17 -8 0 3 9 3 17 0 17
-4 0 -12 -14 -18 -30 -9 -27 -12 -29 -22 -14 -10 13 -23 15 -80 9 -79 -9 -80
-20 -1 -16 42 2 59 -2 72 -15 17 -17 17 -17 -4 -12 -13 3 -25 2 -28 -2 -3 -4
-15 -6 -28 -3 -19 4 -18 2 7 -15 17 -12 33 -19 38 -16 4 3 8 1 8 -4 0 -6 -8
-13 -17 -17 -17 -6 -17 -7 1 -21 15 -11 22 -11 34 -1 13 10 14 9 4 -10 -15
-27 -34 -41 -25 -17 5 14 3 16 -11 11 -10 -4 -15 -3 -11 3 3 6 1 10 -5 10 -7
0 -10 6 -7 14 7 17 -15 38 -34 33 -8 -2 -11 -2 -6 0 16 10 5 22 -25 28 -18 4
-42 9 -53 11 -16 4 -17 3 -5 -5 13 -9 12 -11 -4 -11 -14 0 -17 5 -13 26 3 19
1 24 -10 20 -8 -3 -27 -6 -41 -7 -18 0 -22 -3 -12 -7 16 -7 20 -25 8 -38 -5
-4 -8 -1 -8 7 0 17 -76 24 -86 8 -3 -5 -11 -6 -17 -2 -8 4 -8 2 1 -9 10 -13
10 -17 -5 -22 -10 -4 -14 -4 -11 0 4 3 0 13 -8 21 -13 13 -19 13 -52 -1 -20
-8 -30 -15 -21 -15 18 -1 25 -61 8 -61 -6 0 -8 4 -5 8 3 5 -1 9 -9 9 -8 0 -15
-4 -15 -8 0 -5 -11 -4 -25 1 -20 8 -23 6 -18 -7 5 -13 2 -13 -21 2 -15 10 -29
15 -33 12 -3 -4 6 -11 21 -16 32 -13 35 -25 4 -16 -22 6 -22 5 -4 -9 17 -14
21 -14 36 4 22 25 26 25 26 0 0 -13 -5 -19 -13 -16 -7 3 -13 1 -13 -4 0 -6 5
-10 11 -10 12 0 72 40 77 52 2 4 9 8 15 8 7 0 30 14 51 30 47 35 68 37 138 10
62 -23 90 -26 36 -3 -39 15 -50 33 -23 33 8 0 15 -4 15 -10 0 -5 7 -7 15 -4 8
4 15 1 15 -4 0 -6 9 -14 20 -17 11 -3 20 -11 20 -16 0 -6 -5 -7 -12 -3 -7 4
-8 3 -4 -5 5 -7 12 -9 19 -3 23 17 44 20 44 6 0 -7 -5 -10 -10 -7 -5 3 -7 0
-5 -8 3 -8 12 -13 21 -13 9 1 14 -2 12 -7 -7 -10 35 -34 54 -30 25 5 -12 -24
-143 -113 -21 -14 -33 -26 -26 -26 8 0 22 -8 33 -17 15 -13 19 -14 13 -3 -4 8
0 6 8 -4 9 -11 16 -17 16 -13 0 4 15 -7 33 -25 18 -18 31 -38 29 -44 -2 -7 2
-15 9 -20 7 -4 10 -3 6 2 -3 5 3 10 14 10 23 0 25 -12 4 -20 -10 -4 -15 -20
-15 -54 0 -60 -26 -138 -51 -156 -10 -7 -17 -15 -14 -18 3 -3 -21 -19 -53 -36
-48 -26 -75 -33 -148 -38 -49 -4 -95 -11 -102 -17 -25 -19 -94 -18 -134 3 -21
11 -45 17 -55 13 -17 -6 -17 -6 -1 10 22 23 64 21 85 -3 18 -21 53 -27 53 -10
0 6 -8 13 -17 16 -10 3 -40 14 -66 24 -26 11 -45 15 -42 10 3 -6 -1 -7 -9 -4
-9 3 -14 10 -11 14 3 4 -3 14 -13 21 -15 13 -16 12 -3 -3 11 -15 11 -18 0 -18
-9 0 -10 -3 -4 -8 6 -4 11 -13 13 -20 2 -10 -2 -10 -17 -2 -26 13 -44 13 -35
-1 5 -9 -1 -10 -21 -5 -26 7 -27 6 -15 -11 8 -10 11 -15 6 -11 -4 3 -16 -2
-27 -13 -11 -11 -24 -17 -28 -14 -5 3 -29 7 -52 10 -24 3 -52 8 -62 11 -16 5
-18 2 -12 -16 7 -21 5 -21 -80 -18 -68 2 -89 6 -95 19 -6 11 -29 18 -75 22
-58 6 -69 4 -88 -13 -11 -11 -16 -20 -9 -20 6 0 9 -7 5 -17 -5 -14 -8 -13 -14
5 -9 23 -29 30 -29 10 0 -6 -8 -4 -20 7 -16 15 -17 19 -5 31 16 16 29 19 20 4
-3 -5 1 -10 10 -10 9 0 13 5 10 10 -4 7 78 10 240 10 135 0 244 -4 241 -8 -6
-10 40 -9 50 1 5 4 0 5 -11 2 -17 -6 -18 -5 -5 5 12 9 10 10 -10 4 -14 -3 -22
-3 -17 1 4 5 15 9 25 10 30 2 99 39 80 43 -15 3 -13 7 10 28 20 19 15 17 -24
-8 -28 -18 -49 -36 -47 -40 2 -5 -4 -8 -14 -8 -11 0 -23 -4 -29 -10 -6 -6
-130 -10 -312 -10 -266 -1 -303 -3 -311 -17 -5 -9 -15 -14 -24 -10 -19 7 -27
74 -10 89 7 6 13 20 12 32 0 14 -2 16 -6 6 -3 -8 -12 -23 -20 -32 -8 -9 -12
-22 -8 -27 3 -6 -1 -11 -9 -11 -9 0 -16 5 -16 10 0 6 -5 10 -11 10 -8 0 -10
-14 -6 -42 4 -27 2 -37 -4 -27 -7 11 -9 8 -9 -11 -1 -23 -2 -23 -9 -5 -5 11
-8 88 -7 170 1 134 3 150 19 153 18 4 24 22 7 22 -5 0 -10 9 -10 20 0 11 5 20
10 20 6 0 10 5 10 10 0 6 -7 10 -16 10 -13 0 -15 7 -9 36 4 24 2 39 -5 44 -9
6 -9 16 1 44 13 36 33 47 42 24 2 -8 8 -9 13 -4 5 5 4 11 -3 13 -15 5 -18 60
-3 65 12 4 -9 90 -24 100 -17 12 0 9 29 -4 17 -7 25 -20 26 -37 1 -14 2 -37 3
-51 1 -14 4 -54 5 -90 l4 -65 9 65 c5 36 6 85 3 109 -4 35 -1 47 15 61 20 17
20 18 1 23 -11 3 -22 0 -23 -5 -2 -6 -13 -8 -27 -3 -14 4 -20 12 -17 22 5 11
1 13 -17 8 -19 -5 -20 -4 -4 5 9 6 17 15 17 20 0 15 -28 12 -33 -2 -2 -7 -8
-9 -13 -5 -5 4 -2 12 6 17 22 14 1547 13 1556 -1z m21 -101 c-2 -13 -4 -5 -4
17 -1 22 1 32 4 23 2 -10 2 -28 0 -40z m-422 12 c-3 -5 -12 -10 -18 -10 -7 0
-6 4 3 10 19 12 23 12 15 0z m-84 -7 c-11 -5 -11 -7 0 -15 11 -7 11 -11 1 -15
-6 -2 -10 -9 -7 -14 4 -5 -1 -6 -10 -2 -12 4 -13 8 -5 13 9 6 9 9 0 15 -9 6
-9 10 1 16 8 5 19 8 24 8 6 0 4 -3 -4 -6z m289 -2 c0 -19 -22 -23 -38 -7 -15
15 -14 16 11 16 15 0 27 -4 27 -9z m-340 -75 c0 -3 -4 -8 -10 -11 -5 -3 -10
-1 -10 4 0 6 5 11 10 11 6 0 10 -2 10 -4z m481 -43 c-11 -16 -11 -15 -5 6 4
17 3 21 -6 16 -9 -6 -11 -4 -5 4 5 9 11 9 17 3 7 -7 6 -16 -1 -29z m-36 -43
c-3 -5 -14 -10 -23 -10 -15 0 -15 2 -2 10 20 13 33 13 25 0z m35 -10 c0 -5 -2
-10 -4 -10 -3 0 -8 5 -11 10 -3 6 -1 10 4 10 6 0 11 -4 11 -10z m-85 -10 c-3
-5 1 -10 9 -10 9 0 16 -5 16 -10 0 -7 -7 -7 -20 0 -17 9 -20 30 -4 30 3 0 2
-4 -1 -10z m-28 -42 c-3 -8 -6 -5 -6 6 -1 11 2 17 5 13 3 -3 4 -12 1 -19z
m-20 -25 c-3 -10 -5 -4 -5 12 0 17 2 24 5 18 2 -7 2 -21 0 -30z m-26 4 c-10
-9 -11 -8 -5 6 3 10 9 15 12 12 3 -3 0 -11 -7 -18z m62 -5 c-3 -12 -9 -22 -14
-22 -12 0 -11 7 3 30 15 24 19 21 11 -8z m174 -419 c-1 -76 -3 -14 -3 137 0
151 2 213 3 138 2 -76 2 -200 0 -275z m-19 256 l-3 -114 -5 122 c-3 67 -1 119
3 114 4 -4 6 -59 5 -122z m-118 117 c0 -2 -8 -10 -17 -17 -16 -13 -17 -12 -4
4 13 16 21 21 21 13z m29 -28 c6 11 10 10 15 -4 3 -9 4 -19 1 -22 -3 -3 -5 1
-5 9 0 12 -2 11 -10 -1 -9 -13 -11 -13 -20 0 -5 8 -10 20 -10 25 0 6 5 3 10
-5 8 -12 12 -13 19 -2z m41 -68 c0 -5 -8 -10 -17 -10 -15 0 -16 2 -3 10 19 12
20 12 20 0z m27 -92 c-3 -7 -5 -2 -5 12 0 14 2 19 5 13 2 -7 2 -19 0 -25z
m-30 -20 c-3 -8 -6 -5 -6 6 -1 11 2 17 5 13 3 -3 4 -12 1 -19z m30 -60 c-3 -7
-5 -2 -5 12 0 14 2 19 5 13 2 -7 2 -19 0 -25z m23 -93 c0 -112 -2 -125 -17
-125 -15 0 -13 -4 7 -20 24 -18 24 -20 8 -35 -10 -8 -13 -10 -8 -3 14 17 12
28 -5 28 -17 0 -38 43 -24 48 5 2 9 13 10 25 1 20 2 20 9 -3 5 -16 8 18 9 93
1 64 3 117 6 117 3 0 5 -56 5 -125z m-55 102 c19 -4 34 -33 34 -67 l0 -35 -20
28 c-11 15 -25 27 -30 27 -5 0 -17 -17 -28 -39 -11 -21 -27 -41 -36 -45 -27
-10 -55 -7 -56 7 0 10 -2 10 -6 0 -7 -18 -20 -16 -27 4 -4 10 -4 14 -1 11 4
-4 18 -3 31 2 14 6 26 6 29 0 4 -6 1 -10 -6 -10 -7 0 -10 -3 -6 -6 13 -13 47
8 46 29 -1 17 -2 18 -6 5 -4 -17 -23 -26 -23 -12 0 7 40 83 54 102 5 7 16 10
25 7 9 -4 20 -7 26 -8z m-104 -74 c-12 -20 -14 -14 -5 12 4 9 9 14 11 11 3 -2
0 -13 -6 -23z m-1351 -33 c0 -5 -4 -10 -10 -10 -5 0 -10 5 -10 10 0 6 5 10 10
10 6 0 10 -4 10 -10z m1260 -30 c0 -5 -7 -7 -15 -4 -8 4 -15 8 -15 10 0 2 7 4
15 4 8 0 15 -4 15 -10z m-1245 -44 c-4 -20 -12 -36 -17 -36 -6 0 -7 8 -3 18 4
9 10 27 13 40 8 37 14 17 7 -22z m1402 -8 c-2 -13 -4 -5 -4 17 -1 22 1 32 4
23 2 -10 2 -28 0 -40z m-268 23 c16 -10 0 -16 -66 -24 -31 -3 -43 9 -26 26 9
10 76 8 92 -2z m-1179 -30 c0 -5 3 -16 6 -25 4 -11 0 -16 -12 -16 -16 0 -17 2
-4 10 10 6 11 10 3 10 -7 0 -13 7 -13 15 0 8 5 15 10 15 6 0 10 -4 10 -9z
m1173 -8 c-7 -2 -21 -2 -30 0 -10 3 -4 5 12 5 17 0 24 -2 18 -5z m-485 -20 c2
-9 -9 -13 -37 -13 -28 0 -41 4 -41 14 0 17 72 16 78 -1z m786 -7 c-3 -8 -13
-12 -25 -9 -23 6 -15 23 11 23 12 0 17 -5 14 -14z m-184 -6 c0 -5 16 -10 35
-10 43 0 46 -16 4 -25 -22 -5 -36 -2 -49 10 -11 10 -17 22 -14 26 7 12 24 11
24 -1z m-733 -15 c21 -23 -15 -41 -67 -35 l-45 5 45 10 c43 9 40 10 -47 13
-51 1 -93 7 -93 12 0 15 193 10 207 -5z m116 -2 c-13 -2 -33 -2 -45 0 -13 2
-3 4 22 4 25 0 35 -2 23 -4z m-626 -29 c-3 -3 -12 -4 -19 -1 -8 3 -5 6 6 6 11
1 17 -2 13 -5z m626 -1 c-13 -2 -33 -2 -45 0 -13 2 -3 4 22 4 25 0 35 -2 23
-4z"/>
<path d="M2300 3310 c0 -5 5 -10 10 -10 6 0 10 5 10 10 0 6 -4 10 -10 10 -5 0
-10 -4 -10 -10z"/>
<path d="M2398 3313 c7 -3 16 -2 19 1 4 3 -2 6 -13 5 -11 0 -14 -3 -6 -6z"/>
<path d="M2540 3313 c0 -5 115 -9 255 -9 143 -1 252 2 249 7 -6 11 -504 12
-504 2z"/>
<path d="M3125 3310 l-20 -9 20 0 c11 0 38 4 60 8 l40 9 -40 0 c-22 0 -49 -3
-60 -8z"/>
<path d="M2450 3280 c19 -13 30 -13 30 0 0 6 -10 10 -22 10 -19 0 -20 -2 -8
-10z"/>
<path d="M2493 3275 c-15 -11 -29 -12 -54 -5 -42 12 -48 12 -29 0 12 -7 12
-12 2 -22 -9 -9 -11 -91 -10 -347 l3 -336 5 340 5 340 48 0 48 0 2 -281 2
-281 115 -5 c63 -3 154 -4 201 -2 l86 3 82 56 c72 50 92 75 59 75 -6 0 -8 -3
-5 -7 8 -8 -12 -33 -26 -33 -6 0 -2 7 9 16 18 15 18 15 -10 9 -26 -6 -28 -4
-16 10 7 8 18 15 24 14 24 -3 35 2 32 14 -1 6 -1 9 1 6 2 -4 14 -5 26 -2 22 4
22 4 -1 -9 -12 -8 -19 -17 -16 -21 12 -12 22 -8 55 26 18 17 29 25 24 17 -6
-9 1 -7 17 5 14 11 36 27 48 35 63 43 125 92 123 99 -1 4 4 8 11 8 21 0 126
77 114 84 -16 10 -63 -6 -63 -22 0 -7 -9 -15 -20 -17 -11 -3 -24 -10 -28 -18
-4 -8 -17 -14 -27 -14 -11 0 -20 -7 -20 -15 0 -8 -10 -17 -22 -19 -60 -12 -91
-16 -85 -10 11 11 -133 75 -202 90 -103 21 -191 -9 -271 -91 -30 -30 -35 -43
-35 -81 0 -42 4 -49 45 -84 49 -42 71 -43 44 -2 -16 24 -16 26 -1 13 24 -19
21 1 -3 22 -24 20 -37 23 -22 4 6 -7 7 -18 3 -26 -10 -15 -18 -4 -17 23 1 28
19 30 50 5 18 -14 24 -25 17 -32 -14 -14 -2 -37 20 -37 10 0 19 -5 19 -11 0
-5 -6 -7 -12 -4 -7 4 -5 0 5 -8 14 -12 15 -17 5 -23 -7 -5 -21 -7 -30 -6 -10
2 -18 -1 -18 -7 0 -5 12 -12 28 -14 26 -4 26 -4 -5 -6 -17 0 -33 5 -36 12 -4
10 -7 10 -18 0 -16 -16 -155 -18 -164 -3 -3 5 0 8 7 7 7 -2 10 -2 5 0 -4 3 -4
10 0 16 4 7 -4 4 -17 -6 -38 -27 -50 -31 -62 -19 -8 8 -11 96 -10 273 1 188
-1 266 -10 276 -9 11 -9 16 1 23 8 4 9 10 4 13 -5 4 -19 0 -30 -8z m427 -235
l-25 -8 27 -1 c15 -1 30 4 33 9 3 6 12 10 18 9 9 0 8 -2 -1 -6 -6 -2 -10 -9
-6 -14 6 -10 6 -10 -44 -12 -24 -2 -32 2 -32 16 0 12 8 17 28 16 l27 -1 -25
-8z m103 -7 c-7 -2 -19 -2 -25 0 -7 3 -2 5 12 5 14 0 19 -2 13 -5z m-155 -20
c-12 -15 -34 -17 -43 -3 -4 6 1 7 11 3 10 -4 15 -2 11 3 -3 5 3 10 13 10 14 0
16 -3 8 -13z m212 6 c12 -8 9 -9 -12 -5 -19 4 -27 2 -24 -6 1 -7 1 -10 -1 -5
-3 4 -17 8 -31 8 -27 1 -27 1 3 9 43 11 48 11 65 -1z m-270 -44 c0 -14 -4 -25
-8 -25 -7 0 -8 31 -3 48 4 11 11 -3 11 -23z m335 5 c-3 -5 -12 -10 -18 -10 -7
0 -6 4 3 10 19 12 23 12 15 0z m-380 -10 c-3 -5 -1 -10 5 -10 6 0 9 -4 6 -9
-4 -5 0 -11 6 -14 7 -2 -3 -4 -23 -4 -28 1 -35 5 -31 16 4 10 7 11 10 3 2 -7
8 -12 14 -12 6 0 8 6 5 14 -3 8 -3 17 0 20 10 10 15 7 8 -4z m420 -10 c-6 -9
17 -14 55 -11 10 0 11 -1 2 -5 -6 -3 -9 -10 -6 -16 4 -6 -2 -6 -14 1 -27 14
-54 15 -32 1 13 -8 12 -10 -4 -10 -11 0 -16 -3 -13 -7 4 -3 -5 -12 -19 -20
-33 -16 -35 -16 -28 1 4 10 -2 12 -23 9 -24 -4 -26 -3 -10 7 10 7 28 9 41 6
30 -7 54 28 28 43 -15 9 -14 10 6 11 13 0 20 -4 17 -10z m-35 -10 c13 -8 13
-10 -2 -10 -9 0 -20 5 -23 10 -8 13 5 13 25 0z m-408 -55 c4 -17 1 -25 -8 -25
-8 0 -14 5 -14 11 0 5 -5 7 -11 4 -6 -4 -5 2 3 14 17 28 25 27 30 -4z m458 0
c-7 -8 -17 -15 -23 -15 -6 0 -2 7 9 15 25 19 30 19 14 0z m-86 -24 c3 -5 -1
-12 -10 -15 -22 -9 -24 -8 -24 9 0 16 25 21 34 6z m-379 -41 c3 -5 1 -10 -4
-10 -6 0 -11 5 -11 10 0 6 2 10 4 10 3 0 8 -4 11 -10z m251 -62 c4 -7 3 -8 -4
-4 -8 4 -12 0 -12 -11 0 -15 -2 -15 -9 -3 -10 15 -6 30 9 30 5 0 12 -5 16 -12z
m-40 -25 c-7 -7 -26 7 -26 19 0 6 6 6 15 -2 9 -7 13 -15 11 -17z m-36 8 c0 -5
-7 -11 -14 -14 -10 -4 -13 -1 -9 9 6 15 23 19 23 5z m14 -30 c3 -5 -3 -11 -15
-14 -16 -4 -18 -3 -8 9 13 16 16 17 23 5z"/>
<path d="M2648 3283 c6 -2 18 -2 25 0 6 3 1 5 -13 5 -14 0 -19 -2 -12 -5z"/>
<path d="M2780 3270 c-21 -7 -22 -8 -5 -9 18 -1 18 -3 3 -11 -21 -13 -56 -1
-36 11 10 7 9 9 -4 9 -22 0 -23 -13 -4 -29 18 -15 66 -4 66 15 0 10 10 14 30
12 30 -2 41 -22 18 -31 -8 -4 -7 -6 4 -6 9 -1 25 -4 35 -8 17 -7 17 -6 1 11
-10 9 -18 24 -18 32 0 16 -47 18 -90 4z"/>
<path d="M3350 3270 c19 -13 30 -13 30 0 0 6 -10 10 -22 10 -19 0 -20 -2 -8
-10z"/>
<path d="M3425 3270 c3 -5 8 -10 11 -10 2 0 4 5 4 10 0 6 -5 10 -11 10 -5 0
-7 -4 -4 -10z"/>
<path d="M2610 3260 c-34 -7 -34 -7 -5 -8 17 0 41 4 55 8 33 11 0 11 -50 0z"/>
<path d="M2940 3260 c-23 -6 -21 -8 15 -12 l40 -5 -37 -1 c-21 -1 -38 -7 -38
-13 0 -6 9 -8 23 -3 12 3 19 3 15 -1 -4 -5 -24 -11 -45 -14 -33 -6 -61 -31
-33 -31 6 0 8 5 5 10 -9 14 19 12 33 -2 9 -9 12 -9 12 0 0 7 5 12 11 12 5 0 7
-4 4 -10 -4 -6 8 -10 28 -10 19 0 55 -6 81 -14 49 -15 81 -12 70 6 -4 6 9 8
32 6 25 -2 39 2 42 11 3 10 -1 12 -17 8 -26 -6 -81 10 -81 25 0 6 7 7 16 4 8
-3 12 -2 9 4 -4 6 4 15 17 20 20 9 18 10 -12 5 -18 -3 -36 -9 -40 -13 -20 -27
-74 -39 -100 -22 -11 7 -6 8 18 4 31 -6 46 9 20 19 -10 4 -10 6 0 6 6 1 12 6
12 11 0 11 -63 12 -100 0z m150 -60 c0 -5 -7 -10 -15 -10 -8 0 -15 5 -15 10 0
6 7 10 15 10 8 0 15 -4 15 -10z m-62 -7 c-10 -2 -26 -2 -35 0 -10 3 -2 5 17 5
19 0 27 -2 18 -5z"/>
<path d="M3200 3248 c0 -9 -6 -18 -12 -21 -7 -2 -10 -8 -6 -12 4 -4 15 0 24 9
12 13 14 20 5 29 -8 8 -11 7 -11 -5z"/>
<path d="M3614 3253 c4 -5 21 -8 37 -8 16 0 29 3 29 8 0 4 -16 7 -37 7 -20 0
-33 -3 -29 -7z"/>
<path d="M2540 3225 c0 -14 2 -25 4 -25 2 0 6 11 8 25 3 14 1 25 -3 25 -5 0
-9 -11 -9 -25z"/>
<path d="M2788 3213 c7 -3 16 -2 19 1 4 3 -2 6 -13 5 -11 0 -14 -3 -6 -6z"/>
<path d="M2838 3203 c7 -3 16 -2 19 1 4 3 -2 6 -13 5 -11 0 -14 -3 -6 -6z"/>
<path d="M2790 3180 c24 -8 24 -8 -7 -9 -17 -1 -35 -6 -38 -11 -4 -6 -10 -8
-15 -5 -5 3 -12 0 -17 -7 -4 -7 -17 -13 -28 -13 -13 0 -20 -6 -19 -17 2 -21
-12 -24 -20 -5 -3 6 -3 2 0 -10 4 -17 1 -23 -13 -24 -11 0 -13 -3 -5 -6 7 -3
21 2 30 10 33 29 122 76 156 83 45 8 37 24 -12 23 -33 -1 -34 -2 -12 -9z"/>
<path d="M3128 3143 c7 -3 16 -2 19 1 4 3 -2 6 -13 5 -11 0 -14 -3 -6 -6z"/>
<path d="M3545 3140 c-4 -6 -16 -15 -28 -19 -11 -4 -16 -10 -11 -13 10 -7 60
30 51 38 -3 3 -8 0 -12 -6z"/>
<path d="M3480 3100 c0 -5 5 -10 11 -10 5 0 7 5 4 10 -3 6 -8 10 -11 10 -2 0
-4 -4 -4 -10z"/>
<path d="M2576 3045 c8 -13 12 -30 8 -36 -4 -8 -3 -9 5 -5 6 4 10 15 9 24 -2
9 2 17 9 17 6 0 15 4 20 9 5 5 3 6 -4 2 -8 -4 -13 -2 -13 5 0 8 -4 8 -15 -1
-10 -9 -15 -9 -15 -1 0 6 -5 11 -10 11 -6 0 -3 -11 6 -25z"/>
<path d="M2260 3030 c0 -11 5 -20 10 -20 6 0 10 9 10 20 0 11 -4 20 -10 20 -5
0 -10 -9 -10 -20z"/>
<path d="M3423 2883 c-24 -16 -30 -33 -12 -33 5 0 7 5 3 11 -4 7 -1 10 6 7 8
-2 15 -21 16 -42 1 -20 5 -40 9 -44 4 -4 6 4 5 18 -3 39 -1 47 15 54 20 7 15
-41 -7 -73 -16 -23 -16 -23 -23 -2 -3 12 -10 21 -15 21 -5 0 -7 -6 -4 -14 3
-7 -2 -16 -10 -19 -21 -8 -20 -19 5 -51 21 -26 22 -27 42 -9 15 14 19 15 15 3
-2 -8 -15 -20 -28 -27 -20 -10 -21 -11 -4 -16 11 -3 -6 -5 -36 -5 -32 0 -47 2
-37 7 17 6 17 8 -5 18 -13 7 -32 13 -42 15 -30 5 -32 28 -2 28 14 0 26 -4 26
-10 0 -5 5 -10 10 -10 6 0 10 7 10 15 0 13 -24 20 -52 16 -4 0 -6 8 -5 19 2
24 6 25 34 5 18 -13 22 -13 26 0 4 9 1 12 -7 9 -7 -3 -13 2 -13 10 0 11 6 12
24 5 31 -12 36 -11 28 2 -4 6 -17 14 -29 19 -15 6 -16 9 -5 9 9 1 20 8 23 16
6 18 10 20 -82 -50 -28 -21 -52 -43 -52 -48 0 -4 -4 -6 -8 -3 -5 3 -19 -5 -33
-17 -14 -12 -20 -19 -14 -15 6 4 30 -4 54 -18 49 -27 128 -40 194 -30 54 8
114 58 121 100 6 36 -18 96 -38 97 -33 3 -37 4 -45 18 -6 9 -11 10 -15 2 -12
-18 -24 -12 -19 9 6 24 5 24 -24 3z m116 -57 c8 -10 9 -16 1 -21 -5 -3 -10 0
-11 7 0 9 -2 9 -5 2 -5 -12 -44 -7 -44 5 0 24 41 28 59 7z m5 -47 c-6 -11 -24
-2 -24 11 0 5 7 7 15 4 8 -4 12 -10 9 -15z m-34 3 c0 -5 -9 -17 -20 -27 -11
-10 -20 -13 -20 -7 0 7 5 12 10 12 6 0 10 7 10 15 0 8 5 15 10 15 6 0 10 -4
10 -8z m-80 -38 c0 -2 -7 -4 -15 -4 -8 0 -15 4 -15 10 0 5 7 7 15 4 8 -4 15
-8 15 -10z m102 -2 c3 -11 0 -19 -7 -19 -7 0 -10 8 -7 19 2 10 6 18 7 18 1 0
5 -8 7 -18z m-242 2 c0 -8 -19 -13 -24 -6 -3 5 1 9 9 9 8 0 15 -2 15 -3z m197
-70 c-3 -3 -12 -4 -19 -1 -8 3 -5 6 6 6 11 1 17 -2 13 -5z"/>
<path d="M3396 2824 c-4 -10 -1 -14 6 -12 15 5 23 28 10 28 -5 0 -13 -7 -16
-16z"/>
<path d="M2561 2799 c-1 -9 7 -23 17 -30 15 -12 16 -12 6 1 -6 8 -14 22 -17
30 -5 13 -6 12 -6 -1z"/>
<path d="M2575 2730 c-10 -11 -16 -22 -14 -24 2 -2 12 7 22 20 22 29 17 32 -8
4z"/>
<path d="M2300 2680 c0 -5 5 -10 10 -10 6 0 10 5 10 10 0 6 -4 10 -10 10 -5 0
-10 -4 -10 -10z"/>
<path d="M3170 2546 c0 -2 7 -6 15 -10 8 -3 15 -1 15 4 0 6 -7 10 -15 10 -8 0
-15 -2 -15 -4z"/>
<path d="M3290 2530 c0 -13 11 -13 30 0 12 8 11 10 -7 10 -13 0 -23 -4 -23
-10z"/>
<path d="M2710 2520 c-9 -6 -10 -10 -3 -10 6 0 15 5 18 10 8 12 4 12 -15 0z"/>
<path d="M3710 2645 c0 -8 7 -15 15 -15 8 0 15 7 15 15 0 8 -7 15 -15 15 -8 0
-15 -7 -15 -15z"/>
<path d="M3690 2620 c0 -5 7 -10 16 -10 8 0 12 5 9 10 -3 6 -10 10 -16 10 -5
0 -9 -4 -9 -10z"/>
<path d="M3378 2493 c12 -2 32 -2 45 0 12 2 2 4 -23 4 -25 0 -35 -2 -22 -4z"/>
<path d="M1843 3275 c-269 -68 -413 -146 -461 -249 l-21 -43 -67 -7 c-105 -11
-194 -73 -194 -135 0 -73 65 -76 85 -5 11 39 11 39 68 42 31 2 57 -1 57 -6 0
-5 -17 -58 -39 -118 -21 -60 -49 -145 -62 -189 -15 -52 -31 -86 -46 -98 -23
-18 -23 -21 -23 -248 0 -146 4 -229 10 -229 15 0 12 -26 -5 -40 -16 -13 -21
-102 -9 -148 l6 -22 202 2 201 3 7 82 c11 133 77 232 194 289 53 26 69 29 159
29 82 0 108 -4 145 -21 25 -12 66 -24 92 -27 60 -6 97 -33 144 -107 l39 -60
297 0 296 0 30 53 c39 70 108 129 173 150 65 21 172 22 237 1 73 -24 155 -92
183 -153 l24 -51 160 3 160 2 3 129 c3 129 3 129 -25 158 l-27 28 -804 0 -804
0 -30 -25 c-25 -22 -39 -25 -80 -23 l-50 3 -1 535 -2 535 -25 2 c-14 1 -103
-18 -197 -42z m39 -870 c10 -4 13 -16 10 -36 -4 -30 -4 -30 -66 -27 -63 3 -77
15 -62 54 5 14 88 20 118 9z m-672 -214 c0 -89 -4 -152 -10 -156 -7 -4 -10 48
-10 149 0 97 4 156 10 156 6 0 10 -56 10 -149z"/>
<path d="M1844 2131 c-138 -36 -234 -153 -234 -287 0 -108 74 -219 179 -270
20 -10 67 -20 108 -22 60 -3 80 0 126 21 167 76 233 242 157 395 -34 68 -83
116 -146 143 -48 22 -145 32 -190 20z m167 -142 c44 -31 70 -82 71 -137 0
-116 -101 -199 -211 -172 -144 34 -180 224 -60 313 54 39 142 38 200 -4z"/>
<path d="M1853 1921 c-61 -38 -51 -120 20 -154 67 -33 132 2 132 72 0 78 -85
124 -152 82z"/>
<path d="M3162 2126 c-131 -43 -220 -170 -209 -302 12 -161 153 -282 317 -272
81 5 126 26 190 91 41 41 55 65 72 120 20 66 20 72 5 133 -26 103 -90 181
-180 219 -54 22 -144 27 -195 11z m152 -120 c72 -30 119 -125 101 -206 -8 -38
-65 -97 -113 -117 -51 -21 -114 -9 -158 29 -47 41 -64 77 -64 134 0 123 122
207 234 160z"/>
<path d="M3187 1911 c-65 -59 -26 -154 64 -154 115 0 120 164 6 177 -31 4 -44
0 -70 -23z"/>
<path d="M2250 1820 l0 -40 327 2 327 3 2 31 c1 30 -1 32 -44 38 -24 3 -172 6
-328 6 l-284 0 0 -40z"/>
<path d="M3708 1852 l-128 -3 0 -34 0 -35 135 0 135 0 10 26 c19 50 20 50
-152 46z"/>
<path d="M1408 1443 c-33 -5 -35 -19 -8 -53 l19 -25 1026 -3 c564 -1 1040 1
1058 6 40 10 71 57 47 72 -15 9 -2082 12 -2142 3z"/>
</g>
</svg>
